<?xml version="1.0" standalone="no"?>
<!DOCTYPE svg PUBLIC "-//W3C//DTD SVG 20010904//EN"
 "http://www.w3.org/TR/2001/REC-SVG-20010904/DTD/svg10.dtd">
<svg version="1.0" xmlns="http://www.w3.org/2000/svg"
 width="512.000000pt" height="512.000000pt" viewBox="0 0 512.000000 512.000000"
 preserveAspectRatio="xMidYMid meet">

<g transform="translate(0.000000,512.000000) scale(0.100000,-0.100000)"
fill="#000000" stroke="none">
<path d="M2176 4919 l-26 -20 0 -474 0 -473 -352 -229 c-194 -127 -627 -409
-963 -627 -335 -219 -620 -409 -632 -422 -30 -32 -29 -66 1 -101 l24 -28 1381
-3 1381 -2 0 -60 0 -60 -1234 0 c-1233 0 -1233 0 -1260 -21 -35 -27 -36 -86
-3 -117 21 -20 34 -22 140 -22 l117 0 0 -820 0 -820 -120 0 c-107 0 -122 -2
-140 -20 -21 -21 -26 -69 -10 -100 5 -10 24 -23 41 -29 23 -8 387 -11 1250
-11 l1219 0 0 -60 0 -60 -1380 0 -1381 0 -24 -25 c-33 -32 -33 -78 0 -110 l24
-25 2286 0 c1919 0 2291 2 2318 14 39 16 82 61 96 99 8 19 11 361 11 1080 l0
1051 -272 273 -273 273 -293 0 -294 0 -562 367 c-308 202 -645 422 -748 490
l-188 122 0 166 0 165 455 0 456 0 24 25 c42 41 34 70 -55 188 -44 59 -80 111
-80 117 0 6 36 58 80 117 89 118 97 147 55 188 l-24 25 -509 0 c-500 0 -510 0
-536 -21z m811 -196 c-83 -109 -83 -115 -7 -216 l51 -67 -361 0 -360 0 0 170
0 170 361 0 360 0 -44 -57z m-134 -1319 c342 -223 629 -412 637 -420 12 -12
-13 -14 -179 -14 -181 0 -196 -1 -233 -22 -59 -33 -81 -76 -86 -169 l-5 -79
-1224 0 c-743 0 -1222 4 -1218 9 3 5 171 117 373 249 202 132 578 378 836 546
258 168 471 306 473 306 2 0 283 -183 626 -406z m1427 -771 c0 -209 10 -243
81 -290 42 -28 44 -28 231 -32 l188 -3 0 -984 0 -984 -815 0 -815 0 0 1235 0
1235 565 0 565 0 0 -177z m380 -156 c0 -4 -48 -6 -107 -5 l-108 3 -3 115 -3
115 111 -110 c60 -60 110 -113 110 -118z m-3622 -1034 l-3 -818 -60 0 -60 0
-3 818 -2 817 65 0 65 0 -2 -817z m550 0 l-3 -818 -192 -3 -193 -2 0 820 0
820 195 0 195 0 -2 -817z m282 -3 l0 -820 -60 0 -60 0 0 820 0 820 60 0 60 0
0 -820z m550 0 l0 -820 -192 2 -193 3 -3 818 -2 817 195 0 195 0 0 -820z m288
3 l-3 -818 -60 0 -60 0 -3 818 -2 817 65 0 65 0 -2 -817z m282 -3 l0 -820 -60
0 -60 0 0 820 0 820 60 0 60 0 0 -820z"/>
<path d="M2102 3542 c-344 -123 -371 -583 -44 -744 62 -31 74 -33 167 -33 97
0 104 2 177 38 299 147 300 566 1 714 -66 32 -85 37 -161 40 -66 3 -100 -1
-140 -15z m199 -154 c51 -15 114 -70 141 -122 30 -57 30 -155 0 -212 -60 -117
-199 -165 -317 -110 -88 41 -137 118 -137 216 0 31 7 71 14 90 49 115 178 175
299 138z"/>
<path d="M3361 2224 c-35 -45 -24 -96 26 -122 16 -9 174 -12 578 -12 587 0
602 1 619 45 13 34 6 72 -17 93 l-23 22 -581 0 -582 0 -20 -26z"/>
<path d="M3400 1803 c-57 -21 -76 -80 -39 -127 l20 -26 583 0 583 0 21 23 c22
23 28 60 16 92 -17 44 -32 45 -616 44 -304 0 -560 -3 -568 -6z"/>
<path d="M3365 1335 c-16 -15 -25 -36 -25 -55 0 -19 9 -40 25 -55 l24 -25 576
0 576 0 24 25 c16 15 25 36 25 55 0 19 -9 40 -25 55 l-24 25 -576 0 -576 0
-24 -25z"/>
<path d="M3361 884 c-35 -45 -24 -96 26 -122 16 -9 174 -12 578 -12 587 0 602
1 619 45 13 34 6 72 -17 93 l-23 22 -581 0 -582 0 -20 -26z"/>
</g>
</svg>
