<?xml version="1.0" standalone="no"?>
<!DOCTYPE svg PUBLIC "-//W3C//DTD SVG 20010904//EN"
 "http://www.w3.org/TR/2001/REC-SVG-20010904/DTD/svg10.dtd">
<svg version="1.0" xmlns="http://www.w3.org/2000/svg"
 width="512.000000pt" height="512.000000pt" viewBox="0 0 512.000000 512.000000"
 preserveAspectRatio="xMidYMid meet">

<g transform="translate(0.000000,512.000000) scale(0.100000,-0.100000)"
fill="#000000" stroke="none">
<path d="M600 5069 c-208 -41 -392 -212 -445 -414 -8 -34 -15 -101 -15 -155 0
-119 35 -227 103 -323 225 -314 699 -315 923 -2 124 175 141 410 42 599 -46
86 -165 203 -250 244 -112 55 -244 73 -358 51z m175 -160 c129 -24 239 -108
298 -228 30 -61 32 -72 32 -171 0 -102 -1 -109 -38 -182 -90 -182 -287 -268
-479 -208 -119 37 -200 109 -255 226 -25 53 -28 70 -28 164 0 98 2 110 32 170
57 116 161 199 283 226 71 16 85 16 155 3z"/>
<path d="M1876 5065 c-54 -19 -107 -64 -136 -116 l-25 -44 -3 -545 c-2 -300 0
-559 3 -577 13 -74 93 -123 166 -103 22 6 85 54 174 132 l140 123 475 5 c463
5 476 6 515 27 22 12 54 36 72 55 63 65 63 68 63 488 0 420 0 423 -63 488 -18
19 -50 43 -72 55 -40 22 -46 22 -655 24 -505 2 -622 0 -654 -12z m1237 -157
c46 -24 46 -24 47 -399 l0 -356 -26 -24 -26 -24 -476 -5 c-419 -4 -481 -7
-507 -22 -16 -9 -79 -59 -140 -112 l-110 -96 -3 492 c-2 532 -3 526 51 548 35
14 1164 12 1190 -2z"/>
<path d="M2105 4715 c-33 -32 -34 -83 -2 -113 23 -22 26 -22 421 -22 l397 0
24 25 c40 39 32 96 -16 120 -23 12 -95 15 -414 15 l-386 0 -24 -25z"/>
<path d="M2100 4418 c-25 -28 -26 -78 -1 -109 19 -24 22 -24 230 -27 l211 -3
31 31 c26 26 30 36 25 63 -12 64 -24 67 -262 67 -206 0 -214 -1 -234 -22z"/>
<path d="M4294 5065 c-200 -43 -377 -213 -429 -412 -41 -155 -8 -339 85 -471
266 -379 849 -297 1001 141 24 68 29 99 29 177 0 174 -47 287 -170 410 -141
142 -324 197 -516 155z m191 -156 c127 -23 239 -109 298 -229 30 -60 32 -72
32 -170 0 -97 -2 -110 -32 -172 -93 -197 -312 -286 -516 -208 -111 42 -192
126 -238 250 -17 45 -20 72 -17 146 3 77 9 101 35 155 57 115 161 198 283 225
71 16 85 16 155 3z"/>
<path d="M415 3723 c-136 -42 -238 -156 -264 -298 -6 -33 -43 -483 -82 -1000
-77 -1021 -77 -1007 -27 -1117 53 -114 154 -207 269 -247 32 -12 172 -35 335
-55 153 -20 296 -39 317 -42 l37 -6 0 -433 c0 -481 -2 -468 67 -481 27 -5 37
-1 63 24 l30 30 0 471 c0 273 -4 480 -10 495 -5 14 -18 29 -28 35 -11 6 -176
30 -368 55 -192 25 -365 51 -384 57 -75 26 -140 82 -175 150 -38 73 -38 83 39
1090 66 860 76 970 94 1005 26 51 56 78 116 105 81 35 193 12 253 -53 11 -12
119 -183 238 -378 119 -195 225 -364 236 -374 12 -13 31 -19 51 -19 18 1 208
72 423 158 379 153 392 157 451 153 74 -5 130 -37 171 -99 35 -53 43 -140 19
-204 -33 -86 -50 -95 -597 -313 -277 -111 -523 -205 -546 -210 -79 -18 -172
16 -221 79 -11 13 -77 119 -147 234 -70 116 -136 218 -147 228 -29 25 -80 22
-106 -6 -40 -43 -31 -68 113 -302 l134 -220 1 -193 c0 -222 7 -253 62 -270 18
-6 182 -27 363 -48 229 -25 347 -43 384 -57 74 -27 141 -95 170 -170 21 -57
21 -67 21 -728 l0 -671 30 -30 c26 -25 36 -29 63 -24 18 3 40 16 50 28 17 20
17 62 15 727 l-3 706 -28 60 c-63 134 -166 226 -296 265 -37 11 -194 34 -361
53 l-295 33 -3 83 c-3 75 -1 83 14 77 51 -20 113 -28 172 -23 57 4 142 35 590
215 288 116 542 222 566 236 123 72 197 231 176 378 -18 126 -104 243 -218
296 -51 24 -69 27 -162 27 l-105 0 -353 -143 c-193 -78 -356 -142 -361 -142
-4 0 -98 147 -207 327 -211 347 -259 410 -346 451 -95 44 -202 53 -293 25z"/>
<path d="M4485 3676 c-170 -41 -216 -92 -483 -534 -118 -193 -217 -352 -221
-352 -3 0 -191 -26 -417 -59 -463 -66 -486 -72 -574 -161 -101 -100 -136 -246
-96 -392 l8 -28 -487 0 -487 0 -29 -29 c-16 -16 -29 -37 -29 -46 0 -24 27 -72
45 -79 9 -3 176 -6 371 -6 l354 0 0 -949 c0 -889 1 -950 18 -970 9 -11 31 -24
49 -27 27 -5 37 -1 63 24 l30 30 0 946 0 946 114 0 c96 0 120 -3 148 -20 57
-33 119 -50 187 -51 57 -1 292 29 932 121 75 11 148 24 163 30 15 5 29 10 32
10 3 0 4 -37 2 -82 l-3 -82 -285 -33 c-157 -17 -308 -37 -337 -43 -136 -29
-254 -124 -320 -256 l-38 -78 -3 -706 c-2 -666 -2 -708 15 -728 10 -12 32 -25
50 -28 27 -5 37 -1 63 24 l30 30 0 671 c0 661 0 671 21 728 29 75 97 143 170
170 37 14 157 32 384 57 182 20 345 42 363 48 55 17 62 48 62 270 l1 193 134
220 c97 158 135 228 135 250 0 62 -81 98 -128 58 -11 -10 -79 -116 -152 -235
-72 -119 -145 -230 -162 -247 -60 -58 -20 -50 -728 -152 -190 -27 -367 -49
-393 -49 -84 0 -164 50 -198 125 -24 52 -24 138 0 191 21 45 80 99 126 114 16
5 210 34 430 65 285 40 413 61 445 76 44 20 52 31 265 382 121 199 237 381
258 403 110 121 308 119 420 -5 44 -49 65 -97 72 -165 3 -28 23 -442 45 -921
29 -648 37 -881 29 -915 -22 -96 -99 -184 -188 -215 -25 -9 -199 -34 -386 -55
-187 -22 -350 -45 -362 -51 -12 -7 -27 -26 -32 -43 -5 -17 -12 -242 -15 -499
l-6 -469 30 -30 c26 -25 36 -29 63 -24 56 11 63 29 70 188 4 78 7 277 7 441 0
193 4 297 10 297 6 0 145 16 311 35 194 23 320 42 357 55 155 55 275 195 303
357 8 46 1 265 -30 959 -23 494 -45 923 -51 951 -15 84 -58 162 -124 229 -114
113 -268 157 -421 120z"/>
</g>
</svg>
