<?xml version="1.0" standalone="no"?>
<!DOCTYPE svg PUBLIC "-//W3C//DTD SVG 20010904//EN"
 "http://www.w3.org/TR/2001/REC-SVG-20010904/DTD/svg10.dtd">
<svg version="1.0" xmlns="http://www.w3.org/2000/svg"
 width="512.000000pt" height="512.000000pt" viewBox="0 0 512.000000 512.000000"
 preserveAspectRatio="xMidYMid meet">

<g transform="translate(0.000000,512.000000) scale(0.100000,-0.100000)"
fill="#000000" stroke="none">
<path d="M205 5102 c-99 -34 -174 -117 -195 -215 -8 -37 -10 -701 -8 -2357 l3
-2305 21 -46 c28 -60 93 -125 153 -153 l46 -21 2332 -3 c2330 -2 2332 -2 2387
18 71 27 129 85 156 157 20 54 20 64 18 1261 l-3 1207 -22 41 c-28 53 -74 99
-127 127 l-41 22 -865 0 -865 0 -41 -22 c-53 -28 -99 -74 -127 -127 l-22 -41
0 -1223 0 -1222 -1372 2 -1373 3 -27 28 -28 27 0 2300 0 2300 28 27 27 28
1435 3 1434 2 3 -342 c3 -392 4 -396 93 -482 84 -82 105 -86 485 -86 l330 0 0
-420 c0 -449 2 -464 49 -490 25 -13 77 -13 102 0 48 26 49 37 49 545 0 405 -2
482 -15 509 -20 42 -922 942 -958 955 -20 8 -492 11 -1520 11 -1388 -1 -1495
-2 -1542 -18z m3410 -612 l280 -280 -247 0 -248 0 -32 29 -33 29 -3 251 c-2
138 -2 251 0 251 2 0 129 -126 283 -280z m1284 -1876 c21 -27 21 -28 21 -1196
l0 -1169 -25 -24 -24 -25 -811 0 -811 0 -24 25 -25 24 0 1169 c0 1168 0 1169
21 1196 l20 26 819 0 819 0 20 -26z"/>
<path d="M3453 2428 c-11 -5 -29 -24 -38 -42 -14 -27 -16 -61 -13 -258 l3
-228 28 -27 27 -28 600 0 600 0 27 28 28 27 3 228 c4 248 -1 277 -54 301 -33
15 -1179 14 -1211 -1z m1067 -288 l0 -100 -460 0 -460 0 0 100 0 100 460 0
460 0 0 -100z"/>
<path d="M3454 1549 c-58 -28 -67 -114 -18 -160 23 -22 34 -24 124 -24 90 0
101 2 124 24 50 48 39 133 -21 160 -30 14 -181 13 -209 0z"/>
<path d="M3954 1549 c-58 -28 -67 -114 -18 -160 23 -22 34 -24 124 -24 90 0
101 2 124 24 50 48 39 133 -21 160 -30 14 -181 13 -209 0z"/>
<path d="M4454 1549 c-58 -28 -67 -114 -18 -160 23 -22 34 -24 124 -24 90 0
101 2 124 24 50 48 39 133 -21 160 -30 14 -181 13 -209 0z"/>
<path d="M3454 1069 c-58 -28 -67 -114 -18 -160 23 -22 34 -24 124 -24 90 0
101 2 124 24 50 48 39 133 -21 160 -30 14 -181 13 -209 0z"/>
<path d="M3954 1069 c-58 -28 -67 -114 -18 -160 23 -22 34 -24 124 -24 90 0
101 2 124 24 50 48 39 133 -21 160 -30 14 -181 13 -209 0z"/>
<path d="M4454 1069 c-58 -28 -67 -114 -18 -160 23 -22 34 -24 124 -24 90 0
101 2 124 24 50 48 39 133 -21 160 -30 14 -181 13 -209 0z"/>
<path d="M3454 589 c-58 -28 -67 -114 -18 -160 23 -22 34 -24 124 -24 90 0
101 2 124 24 50 48 39 133 -21 160 -30 14 -181 13 -209 0z"/>
<path d="M3954 589 c-58 -28 -67 -114 -18 -160 23 -22 34 -24 124 -24 90 0
101 2 124 24 50 48 39 133 -21 160 -30 14 -181 13 -209 0z"/>
<path d="M4454 589 c-58 -28 -67 -114 -18 -160 23 -22 34 -24 124 -24 90 0
101 2 124 24 50 48 39 133 -21 160 -30 14 -181 13 -209 0z"/>
<path d="M589 3905 c-55 -30 -61 -110 -13 -156 23 -22 36 -24 130 -27 l104 -4
0 -389 0 -389 28 -31 c30 -34 80 -42 122 -19 47 25 50 53 50 455 l0 375 84 0
c45 0 97 5 114 11 66 23 84 109 33 160 l-29 29 -299 0 c-238 -1 -303 -4 -324
-15z"/>
<path d="M2309 3891 c-54 -54 -46 -81 91 -296 66 -104 120 -193 120 -197 0 -5
-47 -83 -104 -173 -127 -198 -136 -216 -136 -255 0 -45 16 -70 57 -86 27 -12
42 -13 69 -4 29 10 48 35 136 171 l102 160 60 -95 c34 -53 78 -123 99 -156 58
-93 129 -112 182 -48 30 35 32 81 6 123 -10 17 -65 105 -123 196 l-106 167 76
118 c148 233 172 276 172 310 0 74 -94 120 -152 75 -15 -12 -68 -87 -119 -167
-73 -114 -95 -142 -104 -132 -6 7 -47 69 -90 138 -43 69 -91 137 -107 153 -40
38 -89 37 -129 -2z"/>
<path d="M1666 3888 c-18 -16 -82 -155 -205 -446 -99 -232 -182 -435 -186
-451 -9 -42 18 -89 61 -107 32 -14 39 -13 72 3 38 18 56 45 99 151 l22 52 199
0 200 0 22 -52 c47 -110 62 -135 85 -148 69 -37 150 11 147 87 -1 24 -319 790
-366 880 -9 18 -25 37 -35 43 -34 18 -88 12 -115 -12z m123 -471 c28 -65 51
-121 51 -123 0 -2 -49 -4 -110 -4 -60 0 -110 3 -110 7 0 20 105 252 112 245 4
-4 30 -60 57 -125z"/>
<path d="M614 2411 c-32 -14 -64 -60 -64 -92 0 -17 11 -41 29 -61 60 -67 166
-28 166 62 0 66 -72 116 -131 91z"/>
<path d="M1055 2411 c-64 -27 -81 -110 -32 -158 l27 -28 825 -3 824 -2 33 29
c27 24 33 36 33 71 0 35 -6 47 -33 71 l-32 29 -813 -1 c-446 0 -821 -4 -832
-8z"/>
<path d="M605 1851 c-64 -27 -81 -110 -32 -158 l27 -28 1050 -3 1049 -2 33 29
c27 24 33 36 33 71 0 35 -6 47 -33 71 l-32 29 -1038 -1 c-570 0 -1046 -4
-1057 -8z"/>
<path d="M614 1291 c-32 -14 -64 -60 -64 -92 0 -17 11 -41 29 -61 60 -67 166
-28 166 62 0 66 -72 116 -131 91z"/>
<path d="M1055 1291 c-64 -27 -81 -110 -32 -158 l27 -28 825 -3 824 -2 33 29
c27 24 33 36 33 71 0 35 -6 47 -33 71 l-32 29 -813 -1 c-446 0 -821 -4 -832
-8z"/>
<path d="M615 731 c-64 -27 -81 -110 -32 -158 l27 -28 1045 -3 1044 -2 33 29
c27 24 33 36 33 71 0 35 -6 47 -33 71 l-32 29 -1033 -1 c-567 0 -1041 -4
-1052 -8z"/>
</g>
</svg>
